<mxfile host="app.diagrams.net" agent="Mozilla/5.0 (Windows NT 10.0; Win64; x64) AppleWebKit/537.36 (KHTML, like Gecko) Chrome/127.0.0.0 Safari/537.36" version="24.7.8">
  <diagram name="‫עמוד-1‬" id="adAOd61NmQwOdvI0r47-">
    <mxGraphModel dx="1290" dy="522" grid="1" gridSize="10" guides="1" tooltips="1" connect="1" arrows="1" fold="1" page="1" pageScale="1" pageWidth="827" pageHeight="1169" math="0" shadow="0">
      <root>
        <mxCell id="0" />
        <mxCell id="1" parent="0" />
        <mxCell id="PwaI9BSUqBoE7fGUzc_M-9" style="edgeStyle=orthogonalEdgeStyle;rounded=0;orthogonalLoop=1;jettySize=auto;html=1;entryX=0.5;entryY=0;entryDx=0;entryDy=0;" edge="1" parent="1" source="PwaI9BSUqBoE7fGUzc_M-1" target="PwaI9BSUqBoE7fGUzc_M-7">
          <mxGeometry relative="1" as="geometry" />
        </mxCell>
        <mxCell id="PwaI9BSUqBoE7fGUzc_M-1" value="START" style="rounded=1;whiteSpace=wrap;html=1;" vertex="1" parent="1">
          <mxGeometry x="120" y="50" width="120" height="60" as="geometry" />
        </mxCell>
        <mxCell id="PwaI9BSUqBoE7fGUzc_M-2" value="END" style="rounded=1;whiteSpace=wrap;html=1;" vertex="1" parent="1">
          <mxGeometry x="120" y="480" width="120" height="60" as="geometry" />
        </mxCell>
        <mxCell id="PwaI9BSUqBoE7fGUzc_M-13" value="" style="edgeStyle=orthogonalEdgeStyle;rounded=0;orthogonalLoop=1;jettySize=auto;html=1;" edge="1" parent="1" source="PwaI9BSUqBoE7fGUzc_M-4" target="PwaI9BSUqBoE7fGUzc_M-2">
          <mxGeometry relative="1" as="geometry" />
        </mxCell>
        <mxCell id="PwaI9BSUqBoE7fGUzc_M-4" value="x" style="shape=document;whiteSpace=wrap;html=1;boundedLbl=1;" vertex="1" parent="1">
          <mxGeometry x="120" y="390" width="120" height="60" as="geometry" />
        </mxCell>
        <mxCell id="PwaI9BSUqBoE7fGUzc_M-12" value="" style="edgeStyle=orthogonalEdgeStyle;rounded=0;orthogonalLoop=1;jettySize=auto;html=1;" edge="1" parent="1" source="PwaI9BSUqBoE7fGUzc_M-5" target="PwaI9BSUqBoE7fGUzc_M-4">
          <mxGeometry relative="1" as="geometry" />
        </mxCell>
        <mxCell id="PwaI9BSUqBoE7fGUzc_M-5" value="x" style="shape=document;whiteSpace=wrap;html=1;boundedLbl=1;" vertex="1" parent="1">
          <mxGeometry x="120" y="310" width="120" height="60" as="geometry" />
        </mxCell>
        <mxCell id="PwaI9BSUqBoE7fGUzc_M-11" value="" style="edgeStyle=orthogonalEdgeStyle;rounded=0;orthogonalLoop=1;jettySize=auto;html=1;" edge="1" parent="1" source="PwaI9BSUqBoE7fGUzc_M-6" target="PwaI9BSUqBoE7fGUzc_M-5">
          <mxGeometry relative="1" as="geometry" />
        </mxCell>
        <mxCell id="PwaI9BSUqBoE7fGUzc_M-6" value="x" style="shape=document;whiteSpace=wrap;html=1;boundedLbl=1;" vertex="1" parent="1">
          <mxGeometry x="120" y="230" width="120" height="60" as="geometry" />
        </mxCell>
        <mxCell id="PwaI9BSUqBoE7fGUzc_M-10" style="edgeStyle=orthogonalEdgeStyle;rounded=0;orthogonalLoop=1;jettySize=auto;html=1;exitX=0.5;exitY=1;exitDx=0;exitDy=0;entryX=0.5;entryY=0;entryDx=0;entryDy=0;" edge="1" parent="1" source="PwaI9BSUqBoE7fGUzc_M-7" target="PwaI9BSUqBoE7fGUzc_M-6">
          <mxGeometry relative="1" as="geometry" />
        </mxCell>
        <mxCell id="PwaI9BSUqBoE7fGUzc_M-7" value="x (int)= input (&quot;number&quot;)" style="rounded=0;whiteSpace=wrap;html=1;" vertex="1" parent="1">
          <mxGeometry x="120" y="140" width="120" height="60" as="geometry" />
        </mxCell>
      </root>
    </mxGraphModel>
  </diagram>
</mxfile>
